<svg xmlns="http://www.w3.org/2000/svg" viewBox="0 0 256 256" width="256" height="256" role="img" aria-label="iwi favicon">
  <circle cx="128" cy="128" r="128" fill="#00fffc"/>
  <circle cx="128" cy="128" r="114" fill="#f4f4f4"/>
  <path d="M 54 171.2 C 53.33 171.33, 51.17 171.97, 50 171.97 C 48.83 171.96, 47.98 171.68, 47 171.19 C 46.02 170.69, 45.02 169.86, 44.15 169 C 43.28 168.14, 42.34 166.83, 41.77 166 C 41.2 165.17, 41.12 165.17, 40.73 164 C 40.34 162.83, 39.71 160.67, 39.45 159 C 39.19 157.33, 39.16 156.17, 39.18 154 C 39.19 151.83, 39.24 148.83, 39.53 146 C 39.82 143.17, 40.37 139.83, 40.92 137 C 41.48 134.17, 42.06 131.83, 42.86 129 C 43.65 126.17, 44.72 122.67, 45.68 120 C 46.63 117.33, 47.53 115.17, 48.56 113 C 49.59 110.83, 50.78 108.63, 51.85 107 C 52.93 105.37, 53.98 104.13, 55 103.25 C 56.02 102.37, 57 102.01, 58 101.73 C 59 101.44, 59.83 101.29, 61 101.56 C 62.17 101.82, 63.95 102.57, 65 103.31 C 66.05 104.05, 66.77 105.22, 67.32 106 C 67.87 106.78, 67.93 106.67, 68.3 108 C 68.66 109.33, 69.37 111.33, 69.5 114 C 69.63 116.67, 69.61 119.67, 69.08 124 C 68.55 128.33, 67.45 134.83, 66.31 140 C 65.16 145.17, 63.55 150.67, 62.22 155 C 60.89 159.33, 59.29 163.67, 58.33 166 C 57.38 168.33, 57.21 168.13, 56.49 169 C 55.77 169.87, 54.42 170.83, 54 171.2 C 53.58 171.56, 54.67 171.07, 54 171.2 Z" fill="#ff7200"/> <path d="M 61 98.23 C 60.33 98.24, 58 98.4, 57 98.27 C 56 98.13, 55.58 97.8, 55 97.42 C 54.42 97.04, 53.93 96.57, 53.52 96 C 53.11 95.43, 52.77 94.83, 52.52 94 C 52.27 93.17, 51.98 92.5, 52.01 91 C 52.04 89.5, 52.07 87.33, 52.7 85 C 53.32 82.67, 54.76 79, 55.75 77 C 56.74 75, 57.62 74.03, 58.66 73 C 59.7 71.97, 60.61 71.21, 62 70.83 C 63.39 70.45, 65.72 70.51, 67 70.71 C 68.28 70.9, 68.98 71.45, 69.68 72 C 70.37 72.55, 70.83 73, 71.17 74 C 71.51 75, 71.72 76.33, 71.73 78 C 71.74 79.67, 71.67 82, 71.26 84 C 70.84 86, 69.87 88.5, 69.23 90 C 68.6 91.5, 68.19 92, 67.45 93 C 66.7 94, 65.82 95.13, 64.75 96 C 63.67 96.87, 61.62 97.86, 61 98.23 C 60.38 98.6, 61.67 98.22, 61 98.23 Z" fill="#ff7200"/> <path d="M 147 180.2 C 146.17 180.33, 143.5 180.96, 142 180.98 C 140.5 181.01, 139.33 180.77, 138 180.34 C 136.67 179.9, 135.56 179.6, 134 178.38 C 132.44 177.15, 130.03 174.73, 128.64 173 C 127.24 171.27, 126.6 170, 125.61 168 C 124.63 166, 123.56 163.33, 122.75 161 C 121.94 158.67, 121.48 157.17, 120.77 154 C 120.06 150.83, 118.97 144.07, 118.51 142 C 118.05 139.93, 119.56 138.72, 118 141.55 C 116.44 144.38, 111.26 155.09, 109.15 159 C 107.04 162.91, 106.54 163.33, 105.31 165 C 104.09 166.67, 102.88 167.97, 101.82 169 C 100.77 170.03, 99.97 170.63, 99 171.18 C 98.03 171.73, 96.83 172.08, 96 172.3 C 95.17 172.52, 94.67 172.51, 94 172.5 C 93.33 172.49, 92.67 172.43, 92 172.23 C 91.33 172.04, 90.75 171.87, 90 171.34 C 89.25 170.8, 88.58 170.56, 87.52 169 C 86.46 167.44, 84.77 164.67, 83.65 162 C 82.53 159.33, 81.62 156.17, 80.78 153 C 79.95 149.83, 79.29 146.83, 78.64 143 C 77.99 139.17, 77.21 133.83, 76.88 130 C 76.56 126.17, 76.54 122.83, 76.66 120 C 76.77 117.17, 77.09 115, 77.58 113 C 78.06 111, 78.81 109.33, 79.56 108 C 80.32 106.67, 81.02 105.89, 82.09 105 C 83.16 104.11, 84.35 103.25, 86 102.67 C 87.65 102.09, 90.18 101.65, 92 101.54 C 93.82 101.43, 95.68 101.59, 96.89 102 C 98.1 102.41, 98.71 103.17, 99.25 104 C 99.78 104.83, 99.9 105.83, 100.11 107 C 100.32 108.17, 100.38 107.67, 100.49 111 C 100.59 114.33, 100.54 122.17, 100.74 127 C 100.94 131.83, 101.38 137, 101.67 140 C 101.97 143, 102.28 144.07, 102.51 145 C 102.73 145.93, 102.04 147.41, 103 145.58 C 103.96 143.75, 105.76 140.1, 108.24 134 C 110.72 127.9, 115.86 114, 117.89 109 C 119.91 104, 119.55 105.21, 120.4 104 C 121.25 102.79, 121.9 102.32, 123 101.73 C 124.1 101.14, 125.5 100.74, 127 100.45 C 128.5 100.17, 130.67 100.01, 132 100.01 C 133.33 100, 134.17 100.2, 135 100.43 C 135.83 100.67, 136.44 101, 137 101.42 C 137.56 101.85, 137.97 102.24, 138.36 103 C 138.74 103.76, 138.94 102.17, 139.32 106 C 139.7 109.83, 140.23 121.17, 140.64 126 C 141.05 130.83, 140.94 130, 141.78 135 C 142.61 140, 144.94 152.28, 145.65 156 C 146.35 159.72, 145.77 157.03, 146 157.3 C 146.23 157.56, 146.47 158.82, 147 157.61 C 147.53 156.39, 148.62 152.43, 149.16 150 C 149.71 147.57, 149.93 148.17, 150.26 143 C 150.58 137.83, 150.88 123.83, 151.1 119 C 151.33 114.17, 151.36 115.33, 151.6 114 C 151.84 112.67, 152.22 111.83, 152.56 111 C 152.9 110.17, 153.07 109.78, 153.64 109 C 154.21 108.22, 154.77 107.34, 156 106.3 C 157.23 105.26, 159.67 103.56, 161 102.77 C 162.33 101.98, 163 101.85, 164 101.56 C 165 101.26, 166 100.97, 167 101.01 C 168 101.04, 169.33 101.47, 170 101.76 C 170.67 102.05, 170.58 101.86, 171 102.74 C 171.42 103.61, 172.26 104.46, 172.5 107 C 172.73 109.54, 172.8 113.83, 172.4 118 C 172 122.17, 171.11 127.33, 170.11 132 C 169.1 136.67, 167.87 141.33, 166.37 146 C 164.88 150.67, 162.83 156, 161.15 160 C 159.46 164, 157.87 167.17, 156.24 170 C 154.61 172.83, 152.59 175.48, 151.39 177 C 150.18 178.52, 149.73 178.59, 149 179.13 C 148.27 179.66, 147.33 180.02, 147 180.2 C 146.67 180.38, 147.83 180.07, 147 180.2 Z" fill="#ff7200"/> <path d="M 193 171.4 C 192.5 171.5, 191 171.98, 190 171.98 C 189 171.98, 188.07 171.9, 187 171.4 C 185.93 170.9, 184.65 170.07, 183.6 169 C 182.55 167.93, 181.39 166.17, 180.71 165 C 180.03 163.83, 179.85 163.17, 179.53 162 C 179.21 160.83, 178.9 160.5, 178.79 158 C 178.69 155.5, 178.73 150, 178.91 147 C 179.08 144, 179.37 142.67, 179.86 140 C 180.34 137.33, 180.98 134.17, 181.81 131 C 182.64 127.83, 183.71 124.17, 184.83 121 C 185.95 117.83, 187.22 114.67, 188.55 112 C 189.87 109.33, 191.72 106.53, 192.79 105 C 193.87 103.47, 194.13 103.35, 195 102.79 C 195.87 102.23, 197 101.83, 198 101.64 C 199 101.44, 200 101.42, 201 101.62 C 202 101.83, 203.28 102.46, 204 102.85 C 204.72 103.25, 204.63 102.98, 205.32 104 C 206.01 105.02, 207.52 107.17, 208.14 109 C 208.76 110.83, 208.99 112.33, 209.04 115 C 209.1 117.67, 209.07 120.5, 208.46 125 C 207.84 129.5, 206.68 136.33, 205.34 142 C 203.99 147.67, 201.74 154.83, 200.4 159 C 199.07 163.17, 198.21 165.17, 197.33 167 C 196.45 168.83, 195.84 169.27, 195.11 170 C 194.39 170.73, 193.35 171.17, 193 171.4 C 192.65 171.64, 193.5 171.31, 193 171.4 Z" fill="#ff7200"/> <path d="M 201 98.04 C 200.67 98.11, 199.83 98.47, 199 98.48 C 198.17 98.5, 197 98.55, 196 98.13 C 195 97.71, 193.74 96.98, 193 95.96 C 192.26 94.93, 191.76 93.66, 191.59 92 C 191.42 90.34, 191.47 88.33, 191.99 86 C 192.51 83.67, 193.7 80.17, 194.73 78 C 195.77 75.83, 197.34 74.08, 198.22 73 C 199.1 71.92, 199.37 71.91, 200 71.53 C 200.63 71.14, 200.83 70.82, 202 70.71 C 203.17 70.59, 205.79 70.61, 207 70.83 C 208.21 71.04, 208.72 71.64, 209.24 72 C 209.77 72.36, 209.85 72.46, 210.14 73 C 210.43 73.54, 210.81 74.06, 211 75.22 C 211.19 76.39, 211.36 78.37, 211.28 80 C 211.2 81.63, 210.85 83.5, 210.5 85 C 210.15 86.5, 209.9 87.5, 209.19 89 C 208.47 90.5, 207.08 92.79, 206.22 94 C 205.35 95.21, 204.87 95.6, 204 96.28 C 203.13 96.95, 201.5 97.75, 201 98.04 C 200.5 98.34, 201.33 97.97, 201 98.04 Z" fill="#ff7200"/>
</svg>
